# xmcd
#
# Track frame offsets: 
#        182
#        13202
#        26095
#        38505
#        53062
#        68147
#        81155
#        91367
#        110077
#        128715
#
# Disc length: 1917 seconds
#
# Revision: 4
# Processed by: cddbd v1.5PL3 Copyright (c) Steve Scherf et al.
# Submitted via: ExactAudioCopy v0.95a3
#
DISCID=7e077b0a
DTITLE=Alan Jackson - Honky Tonk Christmas
DYEAR=1993
DGENRE=Country
TTITLE0=Honky Tonk Christmas
TTITLE1=The Angels Cried (Duet With Alison Krauss)
TTITLE2=If We Make It Through December
TTITLE3=If You Don't Wanna See Santa Claus Cry
TTITLE4=I Only Want You For Christmas
TTITLE5=Merry Christmas To Me
TTITLE6=A Holly Jolly Christmas
TTITLE7=There's A New Kid In Town (Duet With Keith Whitley)
TTITLE8=Santa's Gonna Come In A Pickup Truck (Duet With The Chipmunks)
TTITLE9=Please Daddy (Don't Get Drunk This Christmas)
EXTD=LABEL =Arista Records, Inc.\nID =75517456752\nUPC =755174-5675
EXTD=20\nCOPYRIGHT =1993
EXTT0=
EXTT1=
EXTT2=
EXTT3=
EXTT4=
EXTT5=
EXTT6=
EXTT7=
EXTT8=
EXTT9=
PLAYORDER=
